<svg width="21" height="22" viewBox="0 0 21 22" fill="none" xmlns="http://www.w3.org/2000/svg">
<path d="M2.86364 0H18.1364C18.9318 0 19.608 0.291667 20.1648 0.875C20.7216 1.45833 21 2.16667 21 3V19C21 19.8333 20.7216 20.5417 20.1648 21.125C19.608 21.7083 18.9318 22 18.1364 22H2.86364C2.06818 22 1.39205 21.7083 0.835227 21.125C0.278409 20.5417 0 19.8333 0 19V3C0 2.16667 0.278409 1.45833 0.835227 0.875C1.39205 0.291667 2.06818 0 2.86364 0ZM15.2727 3V6H18.1364V3H15.2727ZM13.1847 8.1875C12.4688 7.39583 11.5739 7 10.5 7C9.42614 7 8.51136 7.39583 7.75568 8.1875C7.03977 8.9375 6.68182 9.875 6.68182 11C6.68182 12.125 7.03977 13.0833 7.75568 13.875C8.51136 14.625 9.42614 15 10.5 15C11.5739 15 12.4688 14.625 13.1847 13.875C13.9403 13.0833 14.3182 12.125 14.3182 11C14.3182 9.875 13.9403 8.9375 13.1847 8.1875ZM1.90909 9V19C1.90909 19.6667 2.22727 20 2.86364 20H18.1364C18.7727 20 19.0909 19.6667 19.0909 19V9H15.8693C16.108 9.66667 16.2273 10.3333 16.2273 11C16.2273 12.6667 15.6705 14.0833 14.5568 15.25C13.4432 16.4167 12.0909 17 10.5 17C8.90909 17 7.55682 16.4167 6.44318 15.25C5.32955 14.0833 4.77273 12.6667 4.77273 11C4.77273 10.3333 4.89205 9.66667 5.13068 9H1.90909Z" fill="#6A6F7D"/>
</svg>
