<svg width="12" height="16" viewBox="0 0 12 16" fill="none" xmlns="http://www.w3.org/2000/svg">
<path d="M2.41406 2.41406C3.39844 1.42969 4.59375 0.9375 6 0.9375C7.40625 0.9375 8.60156 1.42969 9.58594 2.41406C10.5703 3.39844 11.0625 4.59375 11.0625 6C11.0625 6.65625 10.8047 7.54688 10.2891 8.67188C9.91406 9.58594 9.39844 10.5938 8.74219 11.6953C8.41406 12.2812 8.05078 12.8789 7.65234 13.4883C7.27734 14.0977 6.98438 14.5547 6.77344 14.8594L6.45703 15.3164L6 15.9844L5.54297 15.3164C4.76953 14.2148 4.00781 13.0078 3.25781 11.6953C2.60156 10.5938 2.08594 9.58594 1.71094 8.67188C1.19531 7.54688 0.9375 6.65625 0.9375 6C0.9375 4.59375 1.42969 3.39844 2.41406 2.41406ZM8.77734 3.22266C8.02734 2.44922 7.10156 2.0625 6 2.0625C4.89844 2.0625 3.96094 2.44922 3.1875 3.22266C2.4375 3.97266 2.0625 4.89844 2.0625 6C2.0625 6.49219 2.27344 7.24219 2.69531 8.25C3.04688 9.02344 3.5625 9.98438 4.24219 11.1328C4.82812 12.1406 5.41406 13.0781 6 13.9453C6.58594 13.0781 7.17188 12.1406 7.75781 11.1328C8.4375 9.98438 8.95312 9.02344 9.30469 8.25C9.72656 7.24219 9.9375 6.49219 9.9375 6C9.9375 4.89844 9.55078 3.97266 8.77734 3.22266ZM5.19141 5.22656C5.42578 4.99219 5.69531 4.875 6 4.875C6.30469 4.875 6.5625 4.99219 6.77344 5.22656C7.00781 5.4375 7.125 5.69531 7.125 6C7.125 6.30469 7.00781 6.57422 6.77344 6.80859C6.5625 7.01953 6.30469 7.125 6 7.125C5.69531 7.125 5.42578 7.01953 5.19141 6.80859C4.98047 6.57422 4.875 6.30469 4.875 6C4.875 5.69531 4.98047 5.4375 5.19141 5.22656Z" fill="#2B2D33"/>
</svg>
