<svg width="16" height="16" viewBox="0 0 16 16" fill="none" xmlns="http://www.w3.org/2000/svg">
<path d="M2.85795 0H13.767C14.3352 0 14.8182 0.212121 15.2159 0.636364C15.6136 1.06061 15.8125 1.57576 15.8125 2.18182V13.8182C15.8125 14.4242 15.6136 14.9394 15.2159 15.3636C14.8182 15.7879 14.3352 16 13.767 16H2.85795C2.28977 16 1.80682 15.7879 1.40909 15.3636C1.01136 14.9394 0.8125 14.4242 0.8125 13.8182V2.18182C0.8125 1.57576 1.01136 1.06061 1.40909 0.636364C1.80682 0.212121 2.28977 0 2.85795 0ZM11.7216 2.18182V4.36364H13.767V2.18182H11.7216ZM10.2301 5.95455C9.71875 5.37879 9.07955 5.09091 8.3125 5.09091C7.54545 5.09091 6.89205 5.37879 6.35227 5.95455C5.84091 6.5 5.58523 7.18182 5.58523 8C5.58523 8.81818 5.84091 9.51515 6.35227 10.0909C6.89205 10.6364 7.54545 10.9091 8.3125 10.9091C9.07955 10.9091 9.71875 10.6364 10.2301 10.0909C10.7699 9.51515 11.0398 8.81818 11.0398 8C11.0398 7.18182 10.7699 6.5 10.2301 5.95455ZM2.17614 6.54545V13.8182C2.17614 14.303 2.40341 14.5455 2.85795 14.5455H13.767C14.2216 14.5455 14.4489 14.303 14.4489 13.8182V6.54545H12.1477C12.3182 7.0303 12.4034 7.51515 12.4034 8C12.4034 9.21212 12.0057 10.2424 11.2102 11.0909C10.4148 11.9394 9.44886 12.3636 8.3125 12.3636C7.17614 12.3636 6.21023 11.9394 5.41477 11.0909C4.61932 10.2424 4.22159 9.21212 4.22159 8C4.22159 7.51515 4.30682 7.0303 4.47727 6.54545H2.17614Z" fill="#C8CDD8"/>
</svg>
