<svg width="16" height="16" viewBox="0 0 16 16" fill="none" xmlns="http://www.w3.org/2000/svg">
<path d="M3.04297 1.21875C3.30078 1.03125 3.57031 0.9375 3.85156 0.9375C4.15625 0.9375 4.4375 1.03125 4.69531 1.21875L4.73047 1.25391L4.76562 1.28906L7.01562 3.60938L7.05078 3.64453L7.01562 3.67969C7.27344 3.89062 7.40234 4.17188 7.40234 4.52344C7.40234 4.85156 7.28516 5.13281 7.05078 5.36719L5.92578 6.49219C6.32422 7.40625 6.85156 8.17969 7.50781 8.8125C8.16406 9.44531 8.92578 9.96094 9.79297 10.3594L10.8828 9.26953L10.918 9.23438C11.1523 9.02344 11.4453 8.91797 11.7969 8.91797C12.1484 8.91797 12.4414 9.02344 12.6758 9.23438L12.7109 9.30469L14.9609 11.5547C15.1953 11.7891 15.3125 12.082 15.3125 12.4336C15.3125 12.7852 15.1953 13.0781 14.9609 13.3125L13.2383 15.0703H13.2031C12.6172 15.5859 11.9609 15.7266 11.2344 15.4922C8.70312 14.4844 6.57031 13.125 4.83594 11.4141C2.96094 9.51562 1.60156 7.38281 0.757812 5.01562C0.5 4.26563 0.664062 3.63281 1.25 3.11719V3.08203L3.00781 1.28906V1.25391L3.04297 1.21875ZM3.99219 2.13281C3.94531 2.08594 3.89844 2.0625 3.85156 2.0625C3.82812 2.0625 3.79297 2.08594 3.74609 2.13281L2.02344 3.85547V3.89062C1.78906 4.07812 1.71875 4.32422 1.8125 4.62891C2.58594 6.83203 3.86328 8.82422 5.64453 10.6055C7.23828 12.1992 9.21875 13.4648 11.5859 14.4023C11.9141 14.5195 12.207 14.4609 12.4648 14.2266L14.1875 12.5391C14.2344 12.4688 14.2344 12.4102 14.1875 12.3633L11.8672 10.0781C11.8203 10.0078 11.7734 10.0078 11.7266 10.0781L10.3203 11.4844L10.0391 11.7305L9.6875 11.5547C8.65625 11.1328 7.70703 10.5234 6.83984 9.72656L6.73438 9.62109C6.3125 9.24609 5.9375 8.8125 5.60938 8.32031C5.28125 7.80469 5.04688 7.38281 4.90625 7.05469L4.69531 6.59766L4.58984 6.24609L4.83594 6L6.24219 4.59375C6.3125 4.54688 6.33594 4.5 6.3125 4.45312H6.27734L6.24219 4.41797L3.99219 2.13281Z" fill="#2B2D33"/>
</svg>
