<svg width="19" height="11" viewBox="0 0 19 11" fill="none" xmlns="http://www.w3.org/2000/svg">
<path d="M9.17363 10.997H10.2884C10.3838 10.995 10.4776 10.9726 10.5638 10.9313C10.65 10.8899 10.7266 10.8305 10.7884 10.7569C10.8844 10.6045 10.9353 10.4274 10.935 10.2466C10.935 10.2466 10.9056 8.71613 11.6098 8.47604C12.2845 8.26604 13.1646 9.97645 14.1328 10.6369C14.5054 10.8886 14.947 11.0147 15.3945 10.997H17.8881C18.0641 10.997 19.1498 10.8469 18.5922 9.82505C18.5335 9.73509 18.2403 9.04491 16.7146 7.60436C15.1304 6.10395 15.3651 6.34404 17.2427 3.7629C18.3869 2.20231 18.8269 1.24194 18.7097 0.821943C18.6216 0.491897 17.7122 0.551762 17.7122 0.551762H14.8944C14.7739 0.535783 14.6513 0.556627 14.5425 0.611626C14.4396 0.688969 14.3587 0.792429 14.3078 0.911581C14.0207 1.69137 13.6673 2.44445 13.2518 3.16236C11.9901 5.35327 11.4916 5.47458 11.286 5.32318C10.8172 4.99313 10.9341 4.06286 10.9341 3.37236C10.9341 1.24163 11.2569 0.371218 10.3181 0.131126C9.88741 0.0187083 9.44154 -0.021838 8.99799 0.011081C8.0004 0.011081 7.1497 0.0110808 6.65091 0.251172C6.32807 0.401308 6.09337 0.761445 6.24025 0.791219C6.55575 0.824243 6.84795 0.974683 7.06032 1.21344C7.35378 1.60366 7.35378 2.53394 7.35378 2.53394C7.35378 2.53394 7.52974 5.02481 6.9725 5.32508C6.59122 5.53508 6.06305 5.11508 4.94827 3.13417C4.56443 2.44978 4.231 1.7376 3.95068 1.00344C3.89619 0.878017 3.81634 0.76558 3.71629 0.67339C3.5909 0.569756 3.43749 0.507033 3.27625 0.493481H0.606651C0.606651 0.493481 0.195991 0.46339 0.0491037 0.703481C0.0167122 0.779268 0 0.860981 0 0.943572C0 1.02616 0.0167122 1.10788 0.0491037 1.18366C0.0491037 1.18366 2.16178 6.22526 4.53823 8.74622C6.70935 11.1772 9.17363 10.997 9.17363 10.997Z" fill="#C8CDD8"/>
</svg>
